PathFileType	4	(X/Y/Z)	Walk8.trc
DataRate	CameraRate	NumFrames	NumMarkers	Units	OrigDataRate	OrigDataStartFrame	OrigNumFrames
200.000000	200.000000	4	59	mm	200.000000	454	515
Frame#	Times		RFHD		RACR1		RUA1		RFA1		RWRR		LACR1		LFA1		LWRU		RTH1		LTH4		CLAV		RWRU		LTH2		LFHD		LUA1		RBack		RCAR		LTH3		RElbow		T10		LASI		C7		LTH1		LLFC		LWRR		LTB2		STRN		LMT1		LTB4		LBHD		RTB1		RTH4		LMMAL		LTB1		LElbowM		LCAL		LCAR		RTH2		RPSI		LElbow		RBHD		LTB3		RTH3		LMT5		RLFC		RElbowM		RTB2		RTB4		LPSI		RMT1		RTB3		LLMAL		RASI		RCAL		RLMAL		RToe		LToe		RMMAL		RMT5
			X1	Y1	Z1	X2	Y2	Z2	X3	Y3	Z3	X4	Y4	Z4	X5	Y5	Z5	X6	Y6	Z6	X7	Y7	Z7	X8	Y8	Z8	X9	Y9	Z9	X10	Y10	Z10	X11	Y11	Z11	X12	Y12	Z12	X13	Y13	Z13	X14	Y14	Z14	X15	Y15	Z15	X16	Y16	Z16	X17	Y17	Z17	X18	Y18	Z18	X19	Y19	Z19	X20	Y20	Z20	X21	Y21	Z21	X22	Y22	Z22	X23	Y23	Z23	X24	Y24	Z24	X25	Y25	Z25	X26	Y26	Z26	X27	Y27	Z27	X28	Y28	Z28	X29	Y29	Z29	X30	Y30	Z30	X31	Y31	Z31	X32	Y32	Z32	X33	Y33	Z33	X34	Y34	Z34	X35	Y35	Z35	X36	Y36	Z36	X37	Y37	Z37	X38	Y38	Z38	X39	Y39	Z39	X40	Y40	Z40	X41	Y41	Z41	X42	Y42	Z42	X43	Y43	Z43	X44	Y44	Z44	X45	Y45	Z45	X46	Y46	Z46	X47	Y47	Z47	X48	Y48	Z48	X49	Y49	Z49	X50	Y50	Z50	X51	Y51	Z51	X52	Y52	Z52	X53	Y53	Z53	X54	Y54	Z54	X55	Y55	Z55	X56	Y56	Z56	X57	Y57	Z57	X58	Y58	Z58	X59	Y59	Z59

454	2.27	536.51	1414.9	36.088	454.65	1212.6	155.83	469.17	1076.4	245.02	562.76	845.63	290.96	599.23	751.77	257.76	455.9	1192.7	-212.95	487.99	814.5	-320.09	471.78	704.72	-344.08	447.36	626	209.5	500.22	567.59	-192.21	528.39	1174.9	-21.98	563.68	745.01	320.49	547.66	589.75	-163.09	552.45	1424	-58.99	470.32	1024.1	-275.59	336.69	1142.8	95.705	623.14	703.27	312.93	519.25	486.27	-163.68	482.64	950.5	284.32	299.14	1057.4	-8.043	516.25	807.63	-162.48	386.23	1258.1	-29.922	480.8	649.19	-213.63	558.7	403.16	-125.46	519.54	703.73	-302.74	571.14	217.74	-112.2	581.6	1069.8	-14.945	724.4	32.778	-45.525	588.8	220.28	-52.678	429.52	1343.6	-98.12	361.82	265.88	102.94	434.94	542.7	192.24	569.76	75.004	-3.7459	590.26	307.74	-58.352	406.39	887.47	-220.47	507.37	42.703	-38.014	509.18	655.42	-350.41	491.24	541.08	171.55	264.82	828.83	56.914	434.83	908.45	-287.54	408.57	1339.1	33.991	594.24	137.28	-48.369	426.21	458.78	169.58	632.35	19.695	-103.8	381.57	378.24	151.74	434.45	907.71	216.22	262.91	237.65	129.58	294.57	212.77	83.634	255.89	829.29	-48.894	202.58	43.433	16.046	233.54	157.38	65.587	549.78	58.23	-81.721	522.44	817	155.78	103.49	171.83	35.978	149.38	144.1	87.605	239.33	27.167	53.721	675.44	35.973	-20.992	176.92	145.26	9.9058	168.91	47.541	100.88
455	2.275	542.53	1415.8	35.348	460.4	1213.9	155.27	474.45	1077.7	244.57	567.02	846.24	290.59	602.84	751.93	257.57	462.19	1193.7	-213.33	495.59	815.37	-319.73	479.93	705.45	-343.45	455.2	626.45	209.44	505.21	568.19	-192.77	534.23	1175.8	-22.428	567.24	745.65	320.33	552.88	590.01	-163.76	558.6	1424.7	-59.713	477.57	1025	-275.67	342.45	1144	95.258	626.33	703.18	312.76	523.68	486.74	-164.22	487.51	951.53	283.55	305	1058.3	-8.4378	522.43	809.04	-162.7	392	1259	-30.517	486.3	649.93	-214.16	562.59	403.2	-125.84	527.49	704.76	-301.87	573.19	217.51	-112.41	587.36	1070.8	-15.901	724.5	32.184	-45.173	590.63	219.97	-52.819	435.55	1344.4	-98.883	372.19	266.21	104.55	444.33	542.85	192.54	569.96	74.952	-3.6998	593.06	307.4	-58.587	413.36	888.44	-220.59	507.39	42.828	-38.1	517.47	656.07	-349.32	500.66	542.25	171.82	271.06	829.01	57.22	441.98	909.24	-287.62	414.41	1340.4	33.256	595.2	136.9	-48.374	437.17	458.68	170.33	632.31	19.755	-103.91	393.14	378.05	152.76	439.61	909.07	215.02	272.44	240.07	130.48	304.1	214.27	85.048	261.68	830.18	-48.789	208.14	45.329	17.026	242.12	159.83	66.908	549.96	58.251	-81.691	528.58	817.71	154.92	112.76	177.16	36.15	157.47	148.09	88.105	243.21	27.252	55.114	675.43	35.473	-20.79	185.75	148.57	10.692	173.99	50.446	101.19
456	2.28	548.55	1416.8	34.644	466.1	1215.1	154.77	479.7	1078.9	244.17	571.27	846.88	290.23	606.43	752.12	257.37	468.41	1194.8	-213.67	503.23	816.3	-319.34	488.16	706.24	-342.81	463.01	626.95	209.35	510.02	568.73	-193.31	540.03	1176.8	-22.825	570.86	746.32	320.19	557.96	590.16	-164.46	564.75	1425.3	-60.401	484.82	1026	-275.7	348.19	1145.1	94.839	629.53	703.09	312.52	527.88	487.14	-164.73	492.35	952.57	282.83	310.84	1059.2	-8.8033	528.54	810.45	-162.9	397.72	1259.8	-31.063	491.67	650.61	-214.68	566.26	403.17	-126.21	535.5	705.86	-300.96	575.09	217.29	-112.62	593.07	1071.8	-16.792	724.58	31.748	-44.849	592.36	219.66	-52.965	441.55	1345.4	-99.603	382.76	266.65	106	453.71	543.07	192.78	570.12	74.909	-3.6581	595.72	307.06	-58.823	420.29	889.43	-220.72	507.39	42.936	-38.176	525.86	656.8	-348.19	510.07	543.52	172.08	277.25	829.25	57.474	449.14	910.07	-287.7	420.23	1341.6	32.56	596.09	136.53	-48.397	448.17	458.69	171	632.27	19.848	-104.01	404.77	377.96	153.68	444.76	910.45	213.86	282.27	242.43	131.32	313.9	215.79	86.358	267.46	831.1	-48.716	214.48	47.302	18.169	251.05	162.23	68.163	550.1	58.275	-81.659	534.72	818.42	154.08	122.31	182.1	36.378	165.98	151.92	88.636	247.98	27.413	56.712	675.41	35.082	-20.599	194.89	151.72	11.459	179.87	53.429	101.66
457	2.285	554.55	1417.7	33.978	471.73	1216.4	154.3	484.92	1080.2	243.82	575.54	847.55	289.91	610	752.34	257.14	474.56	1195.9	-213.97	510.91	817.27	-318.94	496.48	707.07	-342.14	470.78	627.52	209.24	514.67	569.2	-193.83	545.81	1177.9	-23.172	574.52	747.03	320.06	562.91	590.22	-165.17	570.89	1426	-61.051	492.07	1027.1	-275.7	353.9	1146.3	94.444	632.77	703	312.22	531.88	487.47	-165.21	497.18	953.6	282.16	316.67	1060.1	-9.1417	534.54	811.82	-163.09	403.4	1260.7	-31.56	496.93	651.24	-215.17	569.75	403.1	-126.57	543.58	707.03	-300.02	576.86	217.06	-112.82	598.75	1072.8	-17.612	724.63	31.439	-44.553	593.99	219.34	-53.123	447.53	1346.3	-100.28	393.5	267.19	107.29	463.07	543.38	192.96	570.28	74.874	-3.6213	598.25	306.71	-59.069	427.2	890.43	-220.86	507.37	43.03	-38.244	534.36	657.59	-347.04	519.46	544.87	172.31	283.39	829.54	57.674	456.29	910.92	-287.78	426.02	1342.9	31.904	596.91	136.18	-48.446	459.16	458.81	171.59	632.23	19.959	-104.08	416.42	377.99	154.5	449.92	911.83	212.76	292.39	244.7	132.1	323.97	217.32	87.541	273.23	832.04	-48.675	221.6	49.312	19.474	260.32	164.56	69.327	550.2	58.302	-81.627	540.84	819.13	153.29	132.11	186.61	36.646	174.92	155.56	89.192	253.7	27.666	58.505	675.37	34.783	-20.419	204.34	154.69	12.196	186.57	56.449	102.3
